<?xml version="1.0" standalone="no"?>
<!DOCTYPE svg PUBLIC "-//W3C//DTD SVG 20010904//EN"
 "http://www.w3.org/TR/2001/REC-SVG-20010904/DTD/svg10.dtd">
<svg version="1.0" xmlns="http://www.w3.org/2000/svg"
 width="980.000000pt" height="980.000000pt" viewBox="0 0 980.000000 980.000000"
 preserveAspectRatio="xMidYMid meet">

<g transform="translate(0.000000,980.000000) scale(0.100000,-0.100000)"
fill="#000000" stroke="none">
<path d="M4215 6619 c-436 -14 -930 -40 -1031 -55 -55 -8 -134 -23 -175 -35
-323 -89 -481 -322 -518 -764 -36 -424 -48 -1238 -22 -1515 44 -485 96 -667
230 -801 175 -175 346 -214 1081 -251 886 -44 2386 -21 2823 42 246 36 381 93
498 209 133 133 185 312 230 791 30 311 6 1376 -36 1650 -55 362 -211 559
-505 639 -124 34 -269 50 -615 66 -754 35 -1390 43 -1960 24z m816 -1350 c340
-198 619 -364 619 -368 0 -6 -1211 -717 -1242 -729 -4 -2 -8 325 -8 727 0 402
2 731 6 731 3 0 284 -162 625 -361z"/>
</g>
</svg>
